<svg width="980" height="520" viewBox="0 0 980 520" fill="none" xmlns="http://www.w3.org/2000/svg">
  <rect width="980" height="520" fill="white"/>
  <rect x="642" y="-28" width="420" height="300" rx="18" transform="rotate(18 642 -28)" fill="#F3F4F6"/>
  <rect x="676" y="18" width="338" height="216" rx="10" transform="rotate(18 676 18)" fill="#D1D5DB"/>
  <rect x="690" y="35" width="310" height="176" rx="6" transform="rotate(18 690 35)" fill="#111827"/>
  <g transform="rotate(18 662 196)">
    <rect x="662" y="196" width="40" height="28" rx="4" fill="#111827"/>
    <rect x="708" y="196" width="40" height="28" rx="4" fill="#111827"/>
    <rect x="754" y="196" width="40" height="28" rx="4" fill="#111827"/>
    <rect x="800" y="196" width="40" height="28" rx="4" fill="#111827"/>
    <rect x="846" y="196" width="40" height="28" rx="4" fill="#111827"/>
    <rect x="892" y="196" width="40" height="28" rx="4" fill="#111827"/>
    <rect x="662" y="230" width="40" height="28" rx="4" fill="#111827"/>
    <rect x="708" y="230" width="40" height="28" rx="4" fill="#111827"/>
    <rect x="754" y="230" width="40" height="28" rx="4" fill="#111827"/>
    <rect x="800" y="230" width="40" height="28" rx="4" fill="#111827"/>
    <rect x="846" y="230" width="40" height="28" rx="4" fill="#111827"/>
    <rect x="892" y="230" width="40" height="28" rx="4" fill="#111827"/>
    <rect x="662" y="264" width="78" height="28" rx="4" fill="#111827"/>
    <rect x="746" y="264" width="40" height="28" rx="4" fill="#111827"/>
    <rect x="792" y="264" width="40" height="28" rx="4" fill="#111827"/>
    <rect x="838" y="264" width="94" height="28" rx="4" fill="#111827"/>
  </g>
  <rect x="650" y="286" width="190" height="112" rx="12" transform="rotate(18 650 286)" fill="#E5E7EB" stroke="#9CA3AF"/>
  <ellipse cx="538" cy="342" rx="72" ry="38" fill="#E5E7EB"/>
  <circle cx="514" cy="323" r="46" fill="#F9FAFB" stroke="#D1D5DB" stroke-width="4"/>
  <circle cx="514" cy="323" r="34" fill="#161616"/>
  <path d="M555 348C598 332 623 345 628 371C634 403 600 421 568 407C549 399 539 386 542 370C544 359 548 353 555 348Z" fill="#F9FAFB" stroke="#D1D5DB" stroke-width="4"/>
  <circle cx="536" cy="132" r="48" fill="#F9FAFB" stroke="#E5E7EB" stroke-width="4"/>
  <path d="M536 83C548 108 553 130 536 181C519 130 524 108 536 83Z" fill="#4D7C0F"/>
  <path d="M492 108C521 112 541 124 578 160C527 151 508 136 492 108Z" fill="#65A30D"/>
  <path d="M580 108C551 112 531 124 494 160C545 151 564 136 580 108Z" fill="#3F6212"/>
  <path d="M505 87C530 105 543 123 552 176C512 140 504 119 505 87Z" fill="#84CC16"/>
  <path d="M567 87C542 105 529 123 520 176C560 140 568 119 567 87Z" fill="#4D7C0F"/>
  <rect x="88" y="88" width="360" height="120" rx="22" fill="#F9FAFB" stroke="#E5E7EB"/>
  <rect x="120" y="122" width="82" height="18" rx="9" fill="#0F766E"/>
  <rect x="120" y="154" width="260" height="14" rx="7" fill="#D1D5DB"/>
  <rect x="120" y="180" width="194" height="14" rx="7" fill="#E5E7EB"/>
  <rect x="104" y="274" width="300" height="78" rx="18" fill="#F9FAFB" stroke="#E5E7EB"/>
  <circle cx="144" cy="313" r="18" fill="#0F766E"/>
  <rect x="178" y="298" width="156" height="12" rx="6" fill="#111827"/>
  <rect x="178" y="322" width="100" height="10" rx="5" fill="#D1D5DB"/>
</svg>
